<svg width="102" height="68" viewBox="0 0 102 68" fill="none" xmlns="http://www.w3.org/2000/svg">
<rect x="0.5" y="0.5" width="67" height="67" stroke="white"/>
<path d="M14.7206 31.424C15.9686 31.424 17.1566 31.1 18.2846 30.452C19.4126 29.804 20.3486 28.916 21.0926 27.788V29.624C20.2046 30.608 19.2326 31.328 18.1766 31.784C17.1206 32.216 15.9206 32.432 14.5766 32.432C13.0886 32.432 11.6846 32.036 10.3646 31.244C9.06859 30.452 8.02459 29.396 7.23259 28.076C6.46459 26.756 6.08059 25.352 6.08059 23.864C6.08059 22.256 6.46459 20.816 7.23259 19.544C8.00059 18.248 9.04459 17.24 10.3646 16.52C11.7086 15.8 13.1966 15.44 14.8286 15.44C17.3246 15.44 19.4486 16.424 21.2006 18.392L9.89659 29.552C10.6886 30.2 11.4566 30.68 12.2006 30.992C12.9446 31.28 13.7846 31.424 14.7206 31.424ZM7.23259 23.756C7.23259 25.748 7.89259 27.452 9.21259 28.868L19.7606 18.392C18.9686 17.696 18.2006 17.204 17.4566 16.916C16.7126 16.604 15.8246 16.448 14.7926 16.448C13.3286 16.448 12.0206 16.772 10.8686 17.42C9.74059 18.044 8.85259 18.908 8.20459 20.012C7.55659 21.116 7.23259 22.364 7.23259 23.756ZM26.9614 15.8H28.1134V18.248C29.2174 16.352 30.9934 15.404 33.4414 15.404C34.6174 15.404 35.6374 15.74 36.5014 16.412C37.3654 17.06 37.9654 18.044 38.3014 19.364C38.6134 18.188 39.2974 17.24 40.3534 16.52C41.4334 15.776 42.6454 15.404 43.9894 15.404C45.7414 15.404 47.0974 15.92 48.0574 16.952C49.0174 17.96 49.4974 19.4 49.4974 21.272V32H48.3454V21.272C48.3454 19.76 47.9494 18.572 47.1574 17.708C46.3894 16.844 45.3694 16.412 44.0974 16.412C43.1374 16.412 42.2494 16.652 41.4334 17.132C40.6174 17.588 39.9694 18.212 39.4894 19.004C39.0094 19.796 38.7694 20.672 38.7694 21.632V32H37.6174V21.92C37.6174 20.192 37.2094 18.848 36.3934 17.888C35.5774 16.904 34.5214 16.412 33.2254 16.412C32.3614 16.412 31.5334 16.628 30.7414 17.06C29.9734 17.492 29.3374 18.08 28.8334 18.824C28.3534 19.544 28.1134 20.336 28.1134 21.2V32H26.9614V15.8ZM57.5958 12.092C57.2598 12.092 56.9598 11.972 56.6958 11.732C56.4558 11.492 56.3358 11.192 56.3358 10.832C56.3358 10.496 56.4558 10.208 56.6958 9.968C56.9598 9.728 57.2598 9.608 57.5958 9.608C57.9318 9.608 58.2198 9.728 58.4598 9.968C58.7238 10.208 58.8558 10.496 58.8558 10.832C58.8558 11.192 58.7238 11.492 58.4598 11.732C58.2198 11.972 57.9318 12.092 57.5958 12.092ZM57.0198 15.8H58.1718V32H57.0198V15.8ZM14.9452 63.324C14.6092 63.324 14.3092 63.204 14.0452 62.964C13.8052 62.724 13.6852 62.424 13.6852 62.064C13.6852 61.728 13.8052 61.44 14.0452 61.2C14.3092 60.96 14.6092 60.84 14.9452 60.84C15.2812 60.84 15.5692 60.96 15.8092 61.2C16.0732 61.44 16.2052 61.728 16.2052 62.064C16.2052 62.424 16.0732 62.724 15.8092 62.964C15.5692 63.204 15.2812 63.324 14.9452 63.324ZM35.8755 63.396C34.7235 63.396 33.7035 63.204 32.8155 62.82C31.9275 62.412 31.2915 61.896 30.9075 61.272V59.364C31.3635 60.396 31.9875 61.164 32.7795 61.668C33.5715 62.148 34.5795 62.388 35.8035 62.388C36.9795 62.388 37.9275 62.028 38.6475 61.308C39.3675 60.564 39.7275 59.616 39.7275 58.464C39.7275 57.48 39.5235 56.724 39.1155 56.196C38.7075 55.644 38.0475 55.092 37.1355 54.54L35.7675 53.748C34.7835 53.148 34.0395 52.68 33.5355 52.344C33.0555 51.984 32.6715 51.588 32.3835 51.156C32.0955 50.7 31.9515 50.172 31.9515 49.572C31.9515 48.612 32.2875 47.844 32.9595 47.268C33.6315 46.692 34.5075 46.404 35.5875 46.404C36.9075 46.404 38.0115 46.704 38.8995 47.304V48.888C38.1555 47.904 37.0875 47.412 35.6955 47.412C34.9275 47.412 34.3035 47.604 33.8235 47.988C33.3435 48.372 33.1035 48.864 33.1035 49.464C33.1035 49.992 33.2475 50.46 33.5355 50.868C33.8235 51.252 34.2195 51.612 34.7235 51.948C35.2515 52.284 36.1155 52.788 37.3155 53.46C38.5395 54.156 39.4395 54.876 40.0155 55.62C40.5915 56.34 40.8795 57.288 40.8795 58.464C40.8795 59.952 40.3875 61.152 39.4035 62.064C38.4435 62.952 37.2675 63.396 35.8755 63.396ZM46.6271 36H47.7791V50.148C48.2831 49.068 49.1351 48.18 50.3351 47.484C51.5591 46.764 52.7951 46.404 54.0431 46.404C56.3231 46.404 58.0751 47.028 59.2991 48.276C60.5471 49.524 61.1711 51.288 61.1711 53.568V63H60.0191V53.568C60.0191 51.6 59.4911 50.088 58.4351 49.032C57.4031 47.952 55.9391 47.412 54.0431 47.412C52.8911 47.412 51.8351 47.688 50.8751 48.24C49.9151 48.768 49.1591 49.512 48.6071 50.472C48.0551 51.408 47.7791 52.44 47.7791 53.568V63H46.6271V36Z" fill="white"/>
<path d="M76.424 32.324C75.296 32.324 74.264 32.072 73.328 31.568C72.392 31.04 71.648 30.308 71.096 29.372C70.544 28.436 70.268 27.392 70.268 26.24V5H71.42V26.24C71.42 27.2 71.636 28.064 72.068 28.832C72.524 29.6 73.136 30.212 73.904 30.668C74.672 31.1 75.512 31.316 76.424 31.316V32.324ZM89.0029 39.164C86.3149 39.164 84.1909 38.204 82.6309 36.284V34.448C83.4229 35.696 84.3229 36.62 85.3309 37.22C86.3389 37.844 87.5149 38.156 88.8589 38.156C90.2269 38.156 91.3909 37.868 92.3509 37.292C93.3349 36.716 94.0789 35.924 94.5829 34.916C95.0869 33.932 95.3389 32.828 95.3389 31.604V28.868C94.7629 29.996 93.8869 30.872 92.7109 31.496C91.5589 32.096 90.2989 32.396 88.9309 32.396C87.5629 32.396 86.3509 32.096 85.2949 31.496C84.2389 30.896 83.4109 30.056 82.8109 28.976C82.2349 27.896 81.9469 26.648 81.9469 25.232V15.8H83.0989V25.232C83.0989 26.528 83.3629 27.644 83.8909 28.58C84.4429 29.492 85.1629 30.188 86.0509 30.668C86.9389 31.148 87.9109 31.388 88.9669 31.388C90.1189 31.388 91.1869 31.112 92.1709 30.56C93.1549 29.984 93.9229 29.228 94.4749 28.292C95.0509 27.332 95.3389 26.312 95.3389 25.232V15.8H96.4909V31.496C96.4909 32.936 96.1909 34.232 95.5909 35.384C95.0149 36.56 94.1629 37.484 93.0349 38.156C91.9069 38.828 90.5629 39.164 89.0029 39.164ZM71.672 43.092C71.336 43.092 71.036 42.972 70.772 42.732C70.532 42.492 70.412 42.192 70.412 41.832C70.412 41.496 70.532 41.208 70.772 40.968C71.036 40.728 71.336 40.608 71.672 40.608C72.008 40.608 72.296 40.728 72.536 40.968C72.8 41.208 72.932 41.496 72.932 41.832C72.932 42.192 72.8 42.492 72.536 42.732C72.296 42.972 72.008 43.092 71.672 43.092ZM71.096 46.8H72.248V63H71.096V46.8Z" fill="black" fill-opacity="0.25"/>
</svg>
